<?xml version="1.0" encoding="UTF-8"?>
<svg id="Layer_2" data-name="Layer 2" xmlns="http://www.w3.org/2000/svg" viewBox="0 0 28.52 24.44">
  <g id="Layer_1-2" data-name="Layer 1">
    <g>
      <path d="M.99,11.04c-.42.32.17,1.42-.56,1.36-.65-.06-.38-1.56-.34-2.03L17.9.03c.13-.03.27-.04.4,0,.43.13,2.25,3.98,2.78,4.55.32.16,3.11-1.01,3.64-.84.27.09.76,1.5.3,1.73-.68.34-.62-.57-.78-.69l-.37-.02L4.08,10.14h1.86l14.64-3.95c.54,0,.53.63.79,1.01.32.48,1,.93,1.58,1.01.4.05,1.17-.14,1.39.07.3.28.44,1.41.58,1.85h.78c.11-.09-.98-2.47-.06-2.47.54,0,.74,2.02.97,2.47.63.1,1.41-.21,1.9.3v13.85l-.17.17H.2l-.17-.17v-9.46c0-.33.79-.33.79,0v8.67l.17.17h26.57l.17-.17v-12.27l-.17-.17H.99ZM18.04,1.03L3.86,9.24l1.69-.5L14.86,3.41c.49-.11.63.46.99.77.57.49,1.16.64,1.9.55s1.38-.82,1.65.35c.58-.17.92.02.57-.64-.61-1.15-1.36-2.24-1.94-3.41ZM17.14,5.64c-.98-.13-1.66-.63-2.4-1.23l-5.93,3.48,8.33-2.25ZM9.37,10.14h14.64l-.24-1c-1.21.08-2.25-.4-3.03-1.31-.21-.25-.2-.67-.61-.63l-10.76,2.93Z"/>
      <path d="M4.7,23.09c-.29-.08-.35-1.05-.5-1.41-.22-.53-.74-1-1.27-1.2-.64-.24-1.24.05-1.33-.81-.16-1.57.07-3.5.08-5.1.13-.32,1.03-.23,1.47-.45s.98-.89,1.13-1.34c.1-.3.14-1.05.33-1.17l19.19-.05c.39.11.32.81.47,1.22.2.57.72,1.2,1.29,1.41.68.25,1.29-.12,1.38.75.17,1.57-.1,3.44-.02,5.05-.12.39-.99.38-1.37.54-.51.21-.98.66-1.2,1.17-.13.31-.25,1.41-.5,1.41h-2.82c-.23,0-.23-.79,0-.79h2.14c.25-.37.26-.79.48-1.21.47-.87,1.42-1.45,2.38-1.62l-.1-4.33c-1.33-.21-2.41-1.33-2.65-2.65l-.33-.12-17.64.06c-.32,1.34-1.29,2.48-2.7,2.71l-.12,4.27c.97.3,1.89.74,2.39,1.68.22.41.24.83.48,1.21h13.06c.33,0,.33.79,0,.79H4.7Z"/>
      <path d="M13.85,13.44c4.89-.52,5.96,6.72,1.29,7.71-5.42,1.15-6.62-7.15-1.29-7.71ZM13.74,14.34c-3.66.53-3.08,6.44.86,6.04s3.39-6.65-.86-6.04Z"/>
      <path d="M6.87,15.57c2.44-.24,2.66,3.81-.15,3.47-1.94-.24-1.88-3.27.15-3.47ZM6.37,16.71c-.83.9.6,2.12,1.37,1.2.72-.86-.6-2.04-1.37-1.2Z"/>
      <path d="M21.4,15.57c2.16-.17,2.5,3.15.52,3.46-2.67.42-2.87-3.27-.52-3.46ZM22.18,16.71c-.77-.84-2.08.34-1.37,1.2.77.92,2.19-.3,1.37-1.2Z"/>
    </g>
  </g>
</svg>